<svg width="2448" height="1325" viewBox="0 0 2448 1325" fill="none" xmlns="http://www.w3.org/2000/svg">
<path fill="white" d="M816 153 H867 V204 H816 Z M867 153 H918 V204 H867 Z M1020 153 H1071 V204 H1020 Z M1224 153 H1275 V204 H1224 Z M1479 153 H1530 V204 H1479 Z M1530 153 H1581 V204 H1530 Z M1683 153 H1734 V204 H1683 Z M510 204 H561 V255 H510 Z M561 204 H612 V255 H561 Z M714 204 H765 V255 H714 Z M765 204 H816 V255 H765 Z M816 204 H867 V255 H816 Z M867 204 H918 V255 H867 Z M918 204 H969 V255 H918 Z M969 204 H1020 V255 H969 Z M1020 204 H1071 V255 H1020 Z M1071 204 H1122 V255 H1071 Z M1122 204 H1173 V255 H1122 Z M1173 204 H1224 V255 H1173 Z M1224 204 H1275 V255 H1224 Z M1275 204 H1326 V255 H1275 Z M1428 204 H1479 V255 H1428 Z M1479 204 H1530 V255 H1479 Z M1530 204 H1581 V255 H1530 Z M1581 204 H1632 V255 H1581 Z M1632 204 H1683 V255 H1632 Z M1683 204 H1734 V255 H1683 Z M1734 204 H1785 V255 H1734 Z M1785 204 H1836 V255 H1785 Z M1836 204 H1887 V255 H1836 Z M1887 204 H1938 V255 H1887 Z M1938 204 H1989 V255 H1938 Z M510 255 H561 V306 H510 Z M561 255 H612 V306 H561 Z M612 255 H663 V306 H612 Z M663 255 H714 V306 H663 Z M714 255 H765 V306 H714 Z M765 255 H816 V306 H765 Z M816 255 H867 V306 H816 Z M867 255 H918 V306 H867 Z M918 255 H969 V306 H918 Z M969 255 H1020 V306 H969 Z M1020 255 H1071 V306 H1020 Z M1071 255 H1122 V306 H1071 Z M1122 255 H1173 V306 H1122 Z M1173 255 H1224 V306 H1173 Z M1224 255 H1275 V306 H1224 Z M1275 255 H1326 V306 H1275 Z M1326 255 H1377 V306 H1326 Z M1377 255 H1428 V306 H1377 Z M1428 255 H1479 V306 H1428 Z M1479 255 H1530 V306 H1479 Z M1530 255 H1581 V306 H1530 Z M1581 255 H1632 V306 H1581 Z M1632 255 H1683 V306 H1632 Z M1683 255 H1734 V306 H1683 Z M1734 255 H1785 V306 H1734 Z M1785 255 H1836 V306 H1785 Z M1836 255 H1887 V306 H1836 Z M1887 255 H1938 V306 H1887 Z M510 306 H561 V357 H510 Z M561 306 H612 V357 H561 Z M612 306 H663 V357 H612 Z M663 306 H714 V357 H663 Z M714 306 H765 V357 H714 Z M765 306 H816 V357 H765 Z M816 306 H867 V357 H816 Z M867 306 H918 V357 H867 Z M918 306 H969 V357 H918 Z M969 306 H1020 V357 H969 Z M1020 306 H1071 V357 H1020 Z M1071 306 H1122 V357 H1071 Z M1122 306 H1173 V357 H1122 Z M1173 306 H1224 V357 H1173 Z M1224 306 H1275 V357 H1224 Z M1275 306 H1326 V357 H1275 Z M1326 306 H1377 V357 H1326 Z M1377 306 H1428 V357 H1377 Z M1428 306 H1479 V357 H1428 Z M1479 306 H1530 V357 H1479 Z M1530 306 H1581 V357 H1530 Z M1581 306 H1632 V357 H1581 Z M1632 306 H1683 V357 H1632 Z M1683 306 H1734 V357 H1683 Z M1734 306 H1785 V357 H1734 Z M1785 306 H1836 V357 H1785 Z M1836 306 H1887 V357 H1836 Z M1887 306 H1938 V357 H1887 Z M459 357 H510 V408 H459 Z M510 357 H561 V408 H510 Z M561 357 H612 V408 H561 Z M612 357 H663 V408 H612 Z M663 357 H714 V408 H663 Z M714 357 H765 V408 H714 Z M765 357 H816 V408 H765 Z M816 357 H867 V408 H816 Z M867 357 H918 V408 H867 Z M918 357 H969 V408 H918 Z M969 357 H1020 V408 H969 Z M1020 357 H1071 V408 H1020 Z M1071 357 H1122 V408 H1071 Z M1122 357 H1173 V408 H1122 Z M1173 357 H1224 V408 H1173 Z M1224 357 H1275 V408 H1224 Z M1275 357 H1326 V408 H1275 Z M1326 357 H1377 V408 H1326 Z M1377 357 H1428 V408 H1377 Z M1428 357 H1479 V408 H1428 Z M1479 357 H1530 V408 H1479 Z M1530 357 H1581 V408 H1530 Z M1581 357 H1632 V408 H1581 Z M1632 357 H1683 V408 H1632 Z M1683 357 H1734 V408 H1683 Z M1734 357 H1785 V408 H1734 Z M1785 357 H1836 V408 H1785 Z M1836 357 H1887 V408 H1836 Z M1887 357 H1938 V408 H1887 Z M510 408 H561 V459 H510 Z M561 408 H612 V459 H561 Z M612 408 H663 V459 H612 Z M663 408 H714 V459 H663 Z M714 408 H765 V459 H714 Z M765 408 H816 V459 H765 Z M816 408 H867 V459 H816 Z M867 408 H918 V459 H867 Z M918 408 H969 V459 H918 Z M969 408 H1020 V459 H969 Z M1020 408 H1071 V459 H1020 Z M1071 408 H1122 V459 H1071 Z M1122 408 H1173 V459 H1122 Z M1173 408 H1224 V459 H1173 Z M1224 408 H1275 V459 H1224 Z M1275 408 H1326 V459 H1275 Z M1326 408 H1377 V459 H1326 Z M1377 408 H1428 V459 H1377 Z M1428 408 H1479 V459 H1428 Z M1479 408 H1530 V459 H1479 Z M1530 408 H1581 V459 H1530 Z M1581 408 H1632 V459 H1581 Z M1632 408 H1683 V459 H1632 Z M1683 408 H1734 V459 H1683 Z M1734 408 H1785 V459 H1734 Z M1785 408 H1836 V459 H1785 Z M1836 408 H1887 V459 H1836 Z M1887 408 H1938 V459 H1887 Z M1938 408 H1989 V459 H1938 Z M510 459 H561 V510 H510 Z M561 459 H612 V510 H561 Z M612 459 H663 V510 H612 Z M663 459 H714 V510 H663 Z M714 459 H765 V510 H714 Z M765 459 H816 V510 H765 Z M816 459 H867 V510 H816 Z M867 459 H918 V510 H867 Z M918 459 H969 V510 H918 Z M969 459 H1020 V510 H969 Z M1020 459 H1071 V510 H1020 Z M1071 459 H1122 V510 H1071 Z M1122 459 H1173 V510 H1122 Z M1173 459 H1224 V510 H1173 Z M1224 459 H1275 V510 H1224 Z M1275 459 H1326 V510 H1275 Z M1326 459 H1377 V510 H1326 Z M1377 459 H1428 V510 H1377 Z M1428 459 H1479 V510 H1428 Z M1479 459 H1530 V510 H1479 Z M1530 459 H1581 V510 H1530 Z M1581 459 H1632 V510 H1581 Z M1632 459 H1683 V510 H1632 Z M1683 459 H1734 V510 H1683 Z M1734 459 H1785 V510 H1734 Z M1785 459 H1836 V510 H1785 Z M1836 459 H1887 V510 H1836 Z M459 510 H510 V561 H459 Z M510 510 H561 V561 H510 Z M561 510 H612 V561 H561 Z M612 510 H663 V561 H612 Z M663 510 H714 V561 H663 Z M714 510 H765 V561 H714 Z M765 510 H816 V561 H765 Z M816 510 H867 V561 H816 Z M867 510 H918 V561 H867 Z M918 510 H969 V561 H918 Z M969 510 H1020 V561 H969 Z M1020 510 H1071 V561 H1020 Z M1071 510 H1122 V561 H1071 Z M1122 510 H1173 V561 H1122 Z M1173 510 H1224 V561 H1173 Z M1224 510 H1275 V561 H1224 Z M1275 510 H1326 V561 H1275 Z M1326 510 H1377 V561 H1326 Z M1377 510 H1428 V561 H1377 Z M1428 510 H1479 V561 H1428 Z M1479 510 H1530 V561 H1479 Z M1530 510 H1581 V561 H1530 Z M1581 510 H1632 V561 H1581 Z M1632 510 H1683 V561 H1632 Z M1683 510 H1734 V561 H1683 Z M1734 510 H1785 V561 H1734 Z M1785 510 H1836 V561 H1785 Z M1836 510 H1887 V561 H1836 Z M510 561 H561 V612 H510 Z M561 561 H612 V612 H561 Z M612 561 H663 V612 H612 Z M663 561 H714 V612 H663 Z M714 561 H765 V612 H714 Z M765 561 H816 V612 H765 Z M816 561 H867 V612 H816 Z M867 561 H918 V612 H867 Z M918 561 H969 V612 H918 Z M969 561 H1020 V612 H969 Z M1020 561 H1071 V612 H1020 Z M1071 561 H1122 V612 H1071 Z M1122 561 H1173 V612 H1122 Z M1173 561 H1224 V612 H1173 Z M1224 561 H1275 V612 H1224 Z M1275 561 H1326 V612 H1275 Z M1326 561 H1377 V612 H1326 Z M1377 561 H1428 V612 H1377 Z M1428 561 H1479 V612 H1428 Z M1479 561 H1530 V612 H1479 Z M1530 561 H1581 V612 H1530 Z M1581 561 H1632 V612 H1581 Z M1632 561 H1683 V612 H1632 Z M1683 561 H1734 V612 H1683 Z M1734 561 H1785 V612 H1734 Z M1785 561 H1836 V612 H1785 Z M1836 561 H1887 V612 H1836 Z M561 612 H612 V663 H561 Z M612 612 H663 V663 H612 Z M663 612 H714 V663 H663 Z M714 612 H765 V663 H714 Z M765 612 H816 V663 H765 Z M816 612 H867 V663 H816 Z M867 612 H918 V663 H867 Z M918 612 H969 V663 H918 Z M969 612 H1020 V663 H969 Z M1020 612 H1071 V663 H1020 Z M1071 612 H1122 V663 H1071 Z M1122 612 H1173 V663 H1122 Z M1173 612 H1224 V663 H1173 Z M1224 612 H1275 V663 H1224 Z M1275 612 H1326 V663 H1275 Z M1326 612 H1377 V663 H1326 Z M1377 612 H1428 V663 H1377 Z M1428 612 H1479 V663 H1428 Z M1479 612 H1530 V663 H1479 Z M1530 612 H1581 V663 H1530 Z M1581 612 H1632 V663 H1581 Z M1632 612 H1683 V663 H1632 Z M1683 612 H1734 V663 H1683 Z M1734 612 H1785 V663 H1734 Z M1785 612 H1836 V663 H1785 Z M1836 612 H1887 V663 H1836 Z M1887 612 H1938 V663 H1887 Z M561 663 H612 V714 H561 Z M612 663 H663 V714 H612 Z M663 663 H714 V714 H663 Z M714 663 H765 V714 H714 Z M765 663 H816 V714 H765 Z M816 663 H867 V714 H816 Z M867 663 H918 V714 H867 Z M918 663 H969 V714 H918 Z M969 663 H1020 V714 H969 Z M1020 663 H1071 V714 H1020 Z M1071 663 H1122 V714 H1071 Z M1122 663 H1173 V714 H1122 Z M1173 663 H1224 V714 H1173 Z M1224 663 H1275 V714 H1224 Z M1275 663 H1326 V714 H1275 Z M1326 663 H1377 V714 H1326 Z M1377 663 H1428 V714 H1377 Z M1428 663 H1479 V714 H1428 Z M1479 663 H1530 V714 H1479 Z M1530 663 H1581 V714 H1530 Z M1581 663 H1632 V714 H1581 Z M1632 663 H1683 V714 H1632 Z M1683 663 H1734 V714 H1683 Z M1734 663 H1785 V714 H1734 Z M1785 663 H1836 V714 H1785 Z M1836 663 H1887 V714 H1836 Z M1887 663 H1938 V714 H1887 Z M459 714 H510 V765 H459 Z M510 714 H561 V765 H510 Z M561 714 H612 V765 H561 Z M612 714 H663 V765 H612 Z M663 714 H714 V765 H663 Z M714 714 H765 V765 H714 Z M765 714 H816 V765 H765 Z M816 714 H867 V765 H816 Z M867 714 H918 V765 H867 Z M918 714 H969 V765 H918 Z M969 714 H1020 V765 H969 Z M1020 714 H1071 V765 H1020 Z M1071 714 H1122 V765 H1071 Z M1122 714 H1173 V765 H1122 Z M1173 714 H1224 V765 H1173 Z M1224 714 H1275 V765 H1224 Z M1275 714 H1326 V765 H1275 Z M1326 714 H1377 V765 H1326 Z M1377 714 H1428 V765 H1377 Z M1428 714 H1479 V765 H1428 Z M1479 714 H1530 V765 H1479 Z M1530 714 H1581 V765 H1530 Z M1581 714 H1632 V765 H1581 Z M1632 714 H1683 V765 H1632 Z M1683 714 H1734 V765 H1683 Z M1734 714 H1785 V765 H1734 Z M1785 714 H1836 V765 H1785 Z M1836 714 H1887 V765 H1836 Z M1887 714 H1938 V765 H1887 Z M1938 714 H1989 V765 H1938 Z M510 765 H561 V816 H510 Z M561 765 H612 V816 H561 Z M612 765 H663 V816 H612 Z M663 765 H714 V816 H663 Z M714 765 H765 V816 H714 Z M765 765 H816 V816 H765 Z M816 765 H867 V816 H816 Z M867 765 H918 V816 H867 Z M918 765 H969 V816 H918 Z M969 765 H1020 V816 H969 Z M1020 765 H1071 V816 H1020 Z M1071 765 H1122 V816 H1071 Z M1122 765 H1173 V816 H1122 Z M1173 765 H1224 V816 H1173 Z M1224 765 H1275 V816 H1224 Z M1275 765 H1326 V816 H1275 Z M1326 765 H1377 V816 H1326 Z M1377 765 H1428 V816 H1377 Z M1428 765 H1479 V816 H1428 Z M1479 765 H1530 V816 H1479 Z M1530 765 H1581 V816 H1530 Z M1581 765 H1632 V816 H1581 Z M1632 765 H1683 V816 H1632 Z M1683 765 H1734 V816 H1683 Z M1734 765 H1785 V816 H1734 Z M1785 765 H1836 V816 H1785 Z M1836 765 H1887 V816 H1836 Z M1887 765 H1938 V816 H1887 Z M1938 765 H1989 V816 H1938 Z M561 816 H612 V867 H561 Z M612 816 H663 V867 H612 Z M663 816 H714 V867 H663 Z M714 816 H765 V867 H714 Z M765 816 H816 V867 H765 Z M816 816 H867 V867 H816 Z M867 816 H918 V867 H867 Z M918 816 H969 V867 H918 Z M969 816 H1020 V867 H969 Z M1020 816 H1071 V867 H1020 Z M1071 816 H1122 V867 H1071 Z M1122 816 H1173 V867 H1122 Z M1173 816 H1224 V867 H1173 Z M1224 816 H1275 V867 H1224 Z M1275 816 H1326 V867 H1275 Z M1326 816 H1377 V867 H1326 Z M1377 816 H1428 V867 H1377 Z M1428 816 H1479 V867 H1428 Z M1479 816 H1530 V867 H1479 Z M1530 816 H1581 V867 H1530 Z M1581 816 H1632 V867 H1581 Z M1632 816 H1683 V867 H1632 Z M1683 816 H1734 V867 H1683 Z M1734 816 H1785 V867 H1734 Z M1785 816 H1836 V867 H1785 Z M1836 816 H1887 V867 H1836 Z M1887 816 H1938 V867 H1887 Z M561 867 H612 V918 H561 Z M612 867 H663 V918 H612 Z M663 867 H714 V918 H663 Z M714 867 H765 V918 H714 Z M765 867 H816 V918 H765 Z M816 867 H867 V918 H816 Z M867 867 H918 V918 H867 Z M918 867 H969 V918 H918 Z M969 867 H1020 V918 H969 Z M1020 867 H1071 V918 H1020 Z M1071 867 H1122 V918 H1071 Z M1122 867 H1173 V918 H1122 Z M1173 867 H1224 V918 H1173 Z M1224 867 H1275 V918 H1224 Z M1275 867 H1326 V918 H1275 Z M1326 867 H1377 V918 H1326 Z M1377 867 H1428 V918 H1377 Z M1428 867 H1479 V918 H1428 Z M1479 867 H1530 V918 H1479 Z M1530 867 H1581 V918 H1530 Z M1581 867 H1632 V918 H1581 Z M1632 867 H1683 V918 H1632 Z M1683 867 H1734 V918 H1683 Z M1734 867 H1785 V918 H1734 Z M1785 867 H1836 V918 H1785 Z M1836 867 H1887 V918 H1836 Z M1887 867 H1938 V918 H1887 Z M459 918 H510 V969 H459 Z M510 918 H561 V969 H510 Z M561 918 H612 V969 H561 Z M612 918 H663 V969 H612 Z M663 918 H714 V969 H663 Z M714 918 H765 V969 H714 Z M765 918 H816 V969 H765 Z M816 918 H867 V969 H816 Z M867 918 H918 V969 H867 Z M918 918 H969 V969 H918 Z M969 918 H1020 V969 H969 Z M1020 918 H1071 V969 H1020 Z M1071 918 H1122 V969 H1071 Z M1122 918 H1173 V969 H1122 Z M1173 918 H1224 V969 H1173 Z M1224 918 H1275 V969 H1224 Z M1275 918 H1326 V969 H1275 Z M1326 918 H1377 V969 H1326 Z M1377 918 H1428 V969 H1377 Z M1428 918 H1479 V969 H1428 Z M1479 918 H1530 V969 H1479 Z M1530 918 H1581 V969 H1530 Z M1581 918 H1632 V969 H1581 Z M1632 918 H1683 V969 H1632 Z M1683 918 H1734 V969 H1683 Z M1734 918 H1785 V969 H1734 Z M1785 918 H1836 V969 H1785 Z M1836 918 H1887 V969 H1836 Z M1887 918 H1938 V969 H1887 Z M459 969 H510 V1020 H459 Z M510 969 H561 V1020 H510 Z M561 969 H612 V1020 H561 Z M612 969 H663 V1020 H612 Z M663 969 H714 V1020 H663 Z M714 969 H765 V1020 H714 Z M765 969 H816 V1020 H765 Z M816 969 H867 V1020 H816 Z M867 969 H918 V1020 H867 Z M918 969 H969 V1020 H918 Z M969 969 H1020 V1020 H969 Z M1020 969 H1071 V1020 H1020 Z M1071 969 H1122 V1020 H1071 Z M1122 969 H1173 V1020 H1122 Z M1173 969 H1224 V1020 H1173 Z M1224 969 H1275 V1020 H1224 Z M1275 969 H1326 V1020 H1275 Z M1326 969 H1377 V1020 H1326 Z M1377 969 H1428 V1020 H1377 Z M1428 969 H1479 V1020 H1428 Z M1479 969 H1530 V1020 H1479 Z M1530 969 H1581 V1020 H1530 Z M1581 969 H1632 V1020 H1581 Z M1632 969 H1683 V1020 H1632 Z M1683 969 H1734 V1020 H1683 Z M1734 969 H1785 V1020 H1734 Z M1785 969 H1836 V1020 H1785 Z M1836 969 H1887 V1020 H1836 Z M1887 969 H1938 V1020 H1887 Z M1938 969 H1989 V1020 H1938 Z M510 1020 H561 V1071 H510 Z M561 1020 H612 V1071 H561 Z M612 1020 H663 V1071 H612 Z M663 1020 H714 V1071 H663 Z M714 1020 H765 V1071 H714 Z M765 1020 H816 V1071 H765 Z M816 1020 H867 V1071 H816 Z M867 1020 H918 V1071 H867 Z M918 1020 H969 V1071 H918 Z M969 1020 H1020 V1071 H969 Z M1020 1020 H1071 V1071 H1020 Z M1071 1020 H1122 V1071 H1071 Z M1122 1020 H1173 V1071 H1122 Z M1173 1020 H1224 V1071 H1173 Z M1224 1020 H1275 V1071 H1224 Z M1275 1020 H1326 V1071 H1275 Z M1326 1020 H1377 V1071 H1326 Z M1377 1020 H1428 V1071 H1377 Z M1428 1020 H1479 V1071 H1428 Z M1479 1020 H1530 V1071 H1479 Z M1530 1020 H1581 V1071 H1530 Z M1581 1020 H1632 V1071 H1581 Z M1632 1020 H1683 V1071 H1632 Z M1683 1020 H1734 V1071 H1683 Z M1734 1020 H1785 V1071 H1734 Z M1785 1020 H1836 V1071 H1785 Z M1836 1020 H1887 V1071 H1836 Z M1887 1020 H1938 V1071 H1887 Z M1938 1020 H1989 V1071 H1938 Z M510 1071 H561 V1122 H510 Z M561 1071 H612 V1122 H561 Z M612 1071 H663 V1122 H612 Z M663 1071 H714 V1122 H663 Z M714 1071 H765 V1122 H714 Z M918 1071 H969 V1122 H918 Z M969 1071 H1020 V1122 H969 Z M1020 1071 H1071 V1122 H1020 Z M1071 1071 H1122 V1122 H1071 Z M1122 1071 H1173 V1122 H1122 Z M1173 1071 H1224 V1122 H1173 Z M1377 1071 H1428 V1122 H1377 Z M1428 1071 H1479 V1122 H1428 Z M1479 1071 H1530 V1122 H1479 Z M1530 1071 H1581 V1122 H1530 Z M1581 1071 H1632 V1122 H1581 Z M1632 1071 H1683 V1122 H1632 Z M1683 1071 H1734 V1122 H1683 Z M1734 1071 H1785 V1122 H1734 Z M1785 1071 H1836 V1122 H1785 Z M1836 1071 H1887 V1122 H1836 Z M1887 1071 H1938 V1122 H1887 Z M561 1122 H612 V1173 H561 Z M612 1122 H663 V1173 H612 Z M663 1122 H714 V1173 H663 Z M969 1122 H1020 V1173 H969 Z M1020 1122 H1071 V1173 H1020 Z M1071 1122 H1122 V1173 H1071 Z M1122 1122 H1173 V1173 H1122 Z M1428 1122 H1479 V1173 H1428 Z M1530 1122 H1581 V1173 H1530 Z"/>
</svg>

