<svg width="2448" height="1325" viewBox="0 0 2448 1325" fill="none" xmlns="http://www.w3.org/2000/svg">
<defs>
<clipPath id="circle-grid-clip">
<circle cx="1224" cy="662.5" r="800"/>
</clipPath>
</defs>
<g id="grid-overlay" opacity="0.88">
<circle cx="1224" cy="662.5" r="800" stroke="#D9D9D9" stroke-width="2"/>
<g clip-path="url(#circle-grid-clip)" opacity="0.7">
<path d="M424 0 V1325" stroke="#D9D9D9" stroke-width="1.5"/>
<path d="M544 0 V1325" stroke="#D9D9D9" stroke-width="1.5"/>
<path d="M664 0 V1325" stroke="#D9D9D9" stroke-width="1.5"/>
<path d="M784 0 V1325" stroke="#D9D9D9" stroke-width="1.5"/>
<path d="M904 0 V1325" stroke="#D9D9D9" stroke-width="1.5"/>
<path d="M1024 0 V1325" stroke="#D9D9D9" stroke-width="1.5"/>
<path d="M1144 0 V1325" stroke="#D9D9D9" stroke-width="1.5"/>
<path d="M1264 0 V1325" stroke="#D9D9D9" stroke-width="1.5"/>
<path d="M1384 0 V1325" stroke="#D9D9D9" stroke-width="1.5"/>
<path d="M1504 0 V1325" stroke="#D9D9D9" stroke-width="1.5"/>
<path d="M1624 0 V1325" stroke="#D9D9D9" stroke-width="1.5"/>
<path d="M1744 0 V1325" stroke="#D9D9D9" stroke-width="1.5"/>
<path d="M1864 0 V1325" stroke="#D9D9D9" stroke-width="1.5"/>
<path d="M1984 0 V1325" stroke="#D9D9D9" stroke-width="1.5"/>
<path d="M204 0 H2244" stroke="#D9D9D9" stroke-width="1.5"/>
<path d="M204 122.5 H2244" stroke="#D9D9D9" stroke-width="1.5"/>
<path d="M204 242.5 H2244" stroke="#D9D9D9" stroke-width="1.5"/>
<path d="M204 362.5 H2244" stroke="#D9D9D9" stroke-width="1.5"/>
<path d="M204 482.5 H2244" stroke="#D9D9D9" stroke-width="1.5"/>
<path d="M204 602.5 H2244" stroke="#D9D9D9" stroke-width="1.5"/>
<path d="M204 722.5 H2244" stroke="#D9D9D9" stroke-width="1.5"/>
<path d="M204 842.5 H2244" stroke="#D9D9D9" stroke-width="1.5"/>
<path d="M204 962.5 H2244" stroke="#D9D9D9" stroke-width="1.5"/>
<path d="M204 1082.5 H2244" stroke="#D9D9D9" stroke-width="1.5"/>
<path d="M204 1202.5 H2244" stroke="#D9D9D9" stroke-width="1.5"/>
<path d="M204 1322.5 H2244" stroke="#D9D9D9" stroke-width="1.5"/>
</g>
</g>
</svg>
